<svg width="148" height="24" viewBox="0 0 148 24" fill="none" xmlns="http://www.w3.org/2000/svg">
<path d="M7.49268 20.0259C8.29997 20.0259 8.95589 19.8039 9.46045 19.3599C9.96501 18.9159 10.2274 18.3255 10.2476 17.5889H14.3496C14.3395 18.6989 14.0368 19.7181 13.4414 20.6465C12.846 21.5648 12.0286 22.2812 10.9893 22.7959C9.95996 23.3005 8.81966 23.5527 7.56836 23.5527C5.22721 23.5527 3.38053 22.811 2.02832 21.3276C0.676107 19.8341 0 17.7756 0 15.1519V14.8643C0 12.3415 0.671061 10.3283 2.01318 8.82471C3.35531 7.32113 5.19694 6.56934 7.53809 6.56934C9.58659 6.56934 11.2264 7.15462 12.4575 8.3252C13.6987 9.48568 14.3294 11.0347 14.3496 12.9722H10.2476C10.2274 12.1245 9.96501 11.4383 9.46045 10.9136C8.95589 10.3787 8.28988 10.1113 7.4624 10.1113C6.4432 10.1113 5.67122 10.4847 5.14648 11.2314C4.63184 11.9681 4.37451 13.1689 4.37451 14.834V15.2881C4.37451 16.9733 4.63184 18.1842 5.14648 18.9209C5.66113 19.6576 6.4432 20.0259 7.49268 20.0259Z" fill="#E1E1E6"/>
<path d="M16.166 14.9097C16.166 13.285 16.4788 11.8369 17.1045 10.5654C17.7301 9.29395 18.6283 8.31006 19.7988 7.61377C20.9795 6.91748 22.3468 6.56934 23.9009 6.56934C26.1108 6.56934 27.9121 7.24544 29.3047 8.59766C30.7074 9.94987 31.4894 11.7865 31.6509 14.1074L31.6812 15.2275C31.6812 17.7402 30.9798 19.7585 29.5771 21.2822C28.1745 22.7959 26.2925 23.5527 23.9312 23.5527C21.5698 23.5527 19.6828 22.7959 18.27 21.2822C16.8674 19.7686 16.166 17.71 16.166 15.1064V14.9097ZM20.5405 15.2275C20.5405 16.7816 20.8332 17.9723 21.4185 18.7998C22.0037 19.6172 22.8413 20.0259 23.9312 20.0259C24.9907 20.0259 25.8182 19.6222 26.4136 18.8149C27.009 17.9976 27.3066 16.6958 27.3066 14.9097C27.3066 13.3859 27.009 12.2052 26.4136 11.3677C25.8182 10.5301 24.9806 10.1113 23.9009 10.1113C22.8312 10.1113 22.0037 10.5301 21.4185 11.3677C20.8332 12.1951 20.5405 13.4818 20.5405 15.2275Z" fill="#E1E1E6"/>
<path d="M33.6943 14.9399C33.6943 12.3869 34.2645 10.3535 35.4048 8.83984C36.5552 7.32617 38.1243 6.56934 40.1123 6.56934C41.7067 6.56934 43.0236 7.16471 44.063 8.35547V0H48.4526V23.25H44.502L44.29 21.5093C43.2002 22.8716 41.7975 23.5527 40.082 23.5527C38.1546 23.5527 36.6056 22.7959 35.4351 21.2822C34.2746 19.7585 33.6943 17.6444 33.6943 14.9399ZM38.0688 15.2578C38.0688 16.7917 38.3363 17.9673 38.8711 18.7847C39.4059 19.6021 40.1829 20.0107 41.2021 20.0107C42.5544 20.0107 43.508 19.4406 44.063 18.3003V11.8369C43.5181 10.6966 42.5745 10.1265 41.2324 10.1265C39.1234 10.1265 38.0688 11.8369 38.0688 15.2578Z" fill="#E1E1E6"/>
<path d="M59.3813 23.5527C56.9797 23.5527 55.022 22.8161 53.5083 21.3428C52.0047 19.8695 51.2529 17.9067 51.2529 15.4546V15.0308C51.2529 13.3859 51.5708 11.9176 52.2065 10.626C52.8423 9.32422 53.7404 8.3252 54.9009 7.62891C56.0715 6.92253 57.4035 6.56934 58.897 6.56934C61.1372 6.56934 62.8981 7.27572 64.1797 8.68848C65.4714 10.1012 66.1172 12.1043 66.1172 14.6978V16.4839H55.688C55.8293 17.5535 56.2531 18.4113 56.9595 19.0571C57.6759 19.703 58.5791 20.0259 59.6689 20.0259C61.3542 20.0259 62.6711 19.4154 63.6196 18.1943L65.769 20.6011C65.1131 21.5295 64.2251 22.256 63.105 22.7808C61.9849 23.2954 60.7437 23.5527 59.3813 23.5527ZM58.8818 10.1113C58.014 10.1113 57.3076 10.404 56.7627 10.9893C56.2279 11.5745 55.8848 12.4121 55.7334 13.502H61.8184V13.1538C61.7982 12.1851 61.5358 11.4383 61.0312 10.9136C60.5267 10.3787 59.8102 10.1113 58.8818 10.1113Z" fill="#E1E1E6"/>
<path d="M68.8418 21.1006C68.8418 20.4043 69.0739 19.8392 69.5381 19.4053C70.0124 18.9714 70.6027 18.7544 71.3091 18.7544C72.0256 18.7544 72.6159 18.9714 73.0801 19.4053C73.5544 19.8392 73.7915 20.4043 73.7915 21.1006C73.7915 21.7868 73.5594 22.3468 73.0952 22.7808C72.631 23.2046 72.0356 23.4165 71.3091 23.4165C70.5926 23.4165 70.0023 23.2046 69.5381 22.7808C69.0739 22.3468 68.8418 21.7868 68.8418 21.1006Z" fill="#E1E1E6"/>
<path d="M81.6626 6.87207L81.7988 8.76416C82.9694 7.30094 84.5386 6.56934 86.5063 6.56934C88.242 6.56934 89.5337 7.07894 90.3813 8.09814C91.229 9.11735 91.6629 10.6411 91.6831 12.6694V23.25H87.3086V12.7754C87.3086 11.847 87.1068 11.1759 86.7031 10.7622C86.2995 10.3384 85.6284 10.1265 84.6899 10.1265C83.4588 10.1265 82.5355 10.6512 81.9199 11.7007V23.25H77.5454V6.87207H81.6626Z" fill="#E1E1E6"/>
<path d="M102.551 23.5527C100.15 23.5527 98.1919 22.8161 96.6782 21.3428C95.1746 19.8695 94.4229 17.9067 94.4229 15.4546V15.0308C94.4229 13.3859 94.7407 11.9176 95.3765 10.626C96.0122 9.32422 96.9103 8.3252 98.0708 7.62891C99.2414 6.92253 100.573 6.56934 102.067 6.56934C104.307 6.56934 106.068 7.27572 107.35 8.68848C108.641 10.1012 109.287 12.1043 109.287 14.6978V16.4839H98.8579C98.9992 17.5535 99.423 18.4113 100.129 19.0571C100.846 19.703 101.749 20.0259 102.839 20.0259C104.524 20.0259 105.841 19.4154 106.79 18.1943L108.939 20.6011C108.283 21.5295 107.395 22.256 106.275 22.7808C105.155 23.2954 103.914 23.5527 102.551 23.5527ZM102.052 10.1113C101.184 10.1113 100.478 10.404 99.9326 10.9893C99.3978 11.5745 99.0547 12.4121 98.9033 13.502H104.988V13.1538C104.968 12.1851 104.706 11.4383 104.201 10.9136C103.697 10.3787 102.98 10.1113 102.052 10.1113Z" fill="#E1E1E6"/>
<path d="M126.028 17.3013L128.178 6.87207H132.401L128.223 23.25H124.56L121.457 12.9419L118.354 23.25H114.706L110.528 6.87207H114.751L116.886 17.2861L119.883 6.87207H123.046L126.028 17.3013Z" fill="#E1E1E6"/>
<path d="M143.451 18.7241C143.451 18.1893 143.183 17.7705 142.648 17.4678C142.124 17.1549 141.276 16.8774 140.105 16.6353C136.21 15.8179 134.263 14.1629 134.263 11.6704C134.263 10.2173 134.863 9.00635 136.064 8.0376C137.275 7.05876 138.854 6.56934 140.802 6.56934C142.881 6.56934 144.541 7.05876 145.782 8.0376C147.033 9.01644 147.659 10.2879 147.659 11.8521H143.284C143.284 11.2264 143.082 10.7118 142.679 10.3081C142.275 9.89437 141.644 9.6875 140.787 9.6875C140.05 9.6875 139.48 9.854 139.076 10.187C138.673 10.52 138.471 10.9438 138.471 11.4585C138.471 11.9429 138.698 12.3364 139.152 12.6392C139.616 12.9318 140.393 13.1891 141.483 13.4111C142.573 13.623 143.491 13.8652 144.238 14.1377C146.549 14.9854 147.704 16.4536 147.704 18.5425C147.704 20.036 147.063 21.2469 145.782 22.1753C144.5 23.0936 142.845 23.5527 140.817 23.5527C139.444 23.5527 138.223 23.3105 137.154 22.8262C136.094 22.3317 135.262 21.6606 134.656 20.813C134.051 19.9552 133.748 19.0319 133.748 18.043H137.896C137.936 18.82 138.223 19.4154 138.758 19.8291C139.293 20.2428 140.01 20.4497 140.908 20.4497C141.745 20.4497 142.376 20.2933 142.8 19.9805C143.234 19.6576 143.451 19.2388 143.451 18.7241Z" fill="#E1E1E6"/>
</svg>
